name Run_200 02_newCOP3_v24.mot
datacolumns 19
datarows 33
range 0.18 0.212
DataType=double
version=3
OpenSimVersion=4.3-2021-08-27-4bc7ad9
endheader
time	R_ground_force_vx	R_ground_force_vy	R_ground_force_vz	R_ground_force_px	R_ground_force_py	R_ground_force_pz	L_ground_force_vx	L_ground_force_vy	L_ground_force_vz	L_ground_force_px	L_ground_force_py	L_ground_force_pz	R_ground_torque_x	R_ground_torque_y	R_ground_torque_z	L_ground_torque_x	L_ground_torque_y	L_ground_torque_z
0.18	-154.500916	1436.301392	-101.901062	0.8075369999999999	0	-0.387103	-3.885503	-2.14341	15.148108	0	0	0	-0	4.704721	-0	0	0	0
0.181	-151.70816	1447.168335	-101.10714	0.805521	0	-0.386812	-3.150519	-1.853016	14.315853	0	0	0	-0	4.422169	-0	0	0	0
0.182	-148.843124	1458.34668	-100.305244	0.803474	0	-0.386521	-2.402241	-1.557225	13.462892	0	0	0	-0	4.148272	-0	0	0	0
0.183	-145.927368	1469.763306	-99.50483699999999	0.801408	0	-0.386233	-1.648408	-1.259047	12.596066	0	0	0	-0	3.883672	-0	0	0	0
0.184	-142.980331	1481.353027	-98.715248	0.799335	0	-0.385952	-0.896472	-0.961293	11.722054	0	0	0	-0	3.628983	-0	0	0	0
0.185	-140.019791	1493.055542	-97.94558000000001	0.797264	0	-0.38568	-0.153723	-0.6666069999999999	10.847333	0	0	0	-0	3.384791	-0	0	0	0
0.186	-137.062149	1504.814453	-97.20461299999999	0.795201	0	-0.385419	0.572666	-0.377466	9.978126	0	0	0	-0	3.151646	-0	0	0	0
0.187	-134.122437	1516.576172	-96.500687	0.793153	0	-0.385171	1.275662	-0.09617299999999999	9.120358	0	0	0	-0	2.930066	-0	0	0	0
0.188	-131.214264	1528.290161	-95.841606	0.791126	0	-0.384938	1.948432	0.175163	8.279602000000001	0	0	0	-0	2.720526	-0	0	0	0
0.189	-128.349747	1539.908325	-95.234573	0.789123	0	-0.384719	2.584442	0.43465	7.461023	0	0	0	-0	2.523465	-0	0	0	0
0.19	-125.539429	1551.385498	-94.686089	0.787147	0	-0.384517	3.177572	0.680632	6.669335	0	0	0	-0	2.339276	-0	0	0	0
0.191	-122.792198	1562.678955	-94.201897	0.785201	0	-0.38433	3.722255	0.911702	5.908756	0	0	0	-0	2.168311	-0	0	0	0
0.192	-120.115257	1573.74939	-93.786942	0.783284	0	-0.384159	4.213611	1.126721	5.182974	0	0	0	-0	2.010873	-0	0	0	0
0.193	-117.514084	1584.560059	-93.445305	0.781399	0	-0.384004	4.647587	1.324823	4.495114	0	0	0	-0	1.867219	-0	0	0	0
0.194	-114.99247	1595.077393	-93.18021400000001	0.779545	0	-0.383864	5.021084	1.505417	3.847722	0	0	0	-0	1.737557	-0	0	0	0
0.195	-112.552574	1605.270752	-92.993988	0.77772	0	-0.383737	5.332065	1.668185	3.242753	0	0	0	-0	1.622046	-0	0	0	0
0.196	-110.194977	1615.112793	-92.88806200000001	0.775926	0	-0.383624	5.579634	1.813076	2.681563	0	0	0	-0	1.520794	-0	0	0	0
0.197	-107.918808	1624.579102	-92.862999	0.774158	0	-0.383523	5.76409	1.940287	2.164924	0	0	0	-0	1.43386	-0	0	0	0
0.198	-105.721863	1633.648438	-92.918488	0.772417	0	-0.383433	5.886934	2.050251	1.693032	0	0	0	-0	1.361252	-0	0	0	0
0.199	-103.600716	1642.302734	-93.05342899999999	0.770701	0	-0.383352	5.950845	2.143616	1.265537	0	0	0	-0	1.302925	-0	0	0	0
0.2	-101.550888	1650.526978	-93.265923	0.769006	0	-0.38328	5.959607	2.221212	0.881571	0	0	0	-0	1.258787	-0	0	0	0
0.201	-99.566956	1658.309082	-93.553337	0.767332	0	-0.383216	5.918001	2.284034	0.539795	0	0	0	-0	1.228695	-0	0	0	0
0.202	-97.642731	1665.640259	-93.912392	0.765676	0	-0.383157	5.831665	2.333202	0.238438	0	0	0	-0	1.212458	-0	0	0	0
0.203	-95.771385	1672.514282	-94.339195	0.764035	0	-0.383104	5.706919	2.369938	-0.024644	0	0	0	-0	1.209837	-0	0	0	0
0.204	-93.94561	1678.928345	-94.82933800000001	0.762408	0	-0.383054	5.550572	2.395531	-0.25191	0	0	0	-0	1.220548	-0	0	0	0
0.205	-92.157776	1684.881836	-95.377937	0.760792	0	-0.383007	5.36972	2.411307	-0.446079	0	0	0	-0	1.24426	-0	0	0	0
0.206	-90.400085	1690.377075	-95.979752	0.759186	0	-0.382962	5.171534	2.418604	-0.61006	0	0	0	-0	1.280601	-0	0	0	0
0.207	-88.664749	1695.418823	-96.629234	0.757587	0	-0.382917	4.963069	2.41875	-0.7468900000000001	0	0	0	-0	1.329158	-0	0	0	0
0.208	-86.944138	1700.013794	-97.320587	0.7559940000000001	0	-0.382873	4.75107	2.413037	-0.859671	0	0	0	-0	1.38948	-0	0	0	0
0.209	-85.230957	1704.171021	-98.04791299999999	0.754404	0	-0.382826	4.541821	2.402712	-0.951508	0	0	0	-0	1.461077	-0	0	0	0
0.21	-83.51840199999999	1707.900879	-98.80519099999999	0.752817	0	-0.382778	4.341001	2.388966	-1.025446	0	0	0	-0	1.543428	-0	0	0	0
0.211	-81.800331	1711.215454	-99.586426	0.751232	0	-0.382728	4.153586	2.372923	-1.08442	0	0	0	-0	1.635978	-0	0	0	0
0.212	-80.07139599999999	1714.127808	-100.385681	0.749646	0	-0.382673	3.983778	2.355643	-1.131204	0	0	0	-0	1.738145	-0	0	0	0
